# xmcd
#
# Track frame offsets:
#	150
#	17292
#	33945
#	52152
#	67707
#	87072
#	101844
#	124029
#	139400
#	156256
#	173398
#	190051
#	208258
#	223813
#	243178
#	257950
#	280135
#	295506
#
# Disc length: 4164 seconds
#
# Revision: 1
# Processed by: cddbd v1.5.2PL0 Copyright (c) Steve Scherf et al.
# Submitted via: audiograbber 1.83.01
#
DISCID=fd104212
DTITLE=Country May 2010 - Vol 21003-5
DYEAR=2010
DGENRE=Country
TTITLE0=Toby Keith - Every Dog Has Its Day
TTITLE1=Laura Bell Bundy - Giddy On Up
TTITLE2=Kenny Chesney - Ain't Back Yet
TTITLE3=George Strait - I Gotta Get To You
TTITLE4=Tim McGraw - Still
TTITLE5=Ash Bowers - Ain't No Stopping Her Now
TTITLE6=Eli Young Band - Guinevere
TTITLE7=Katie Armiger - Kiss Me Now
TTITLE8=James Lann - Moving On
TTITLE9=Toby Keith - Every Dog Has Its Day
TTITLE10=Laura Bell Bundy - Giddy On Up
TTITLE11=Kenny Chesney - Ain't Back Yet
TTITLE12=George Strait - I Gotta Get To You
TTITLE13=Tim McGraw - Still
TTITLE14=Ash Bowers - Ain't No Stopping Her Now
TTITLE15=Eli Young Band - Guinevere
TTITLE16=Katie Armiger - Kiss Me Now
TTITLE17=James Lann - Moving On
EXTD=
EXTT0=
EXTT1=
EXTT2=
EXTT3=
EXTT4=
EXTT5=
EXTT6=
EXTT7=
EXTT8=
EXTT9=
EXTT10=
EXTT11=
EXTT12=
EXTT13=
EXTT14=
EXTT15=
EXTT16=
EXTT17=
PLAYORDER=
